<?xml version="1.0" encoding="utf-8"?>
<!-- Generator: Adobe Illustrator 16.0.0, SVG Export Plug-In . SVG Version: 6.00 Build 0)  -->
<!DOCTYPE svg PUBLIC "-//W3C//DTD SVG 1.1//EN" "http://www.w3.org/Graphics/SVG/1.1/DTD/svg11.dtd">
<svg version="1.1" id="Layer_1" xmlns:sketch="http://www.bohemiancoding.com/sketch/ns"
	 xmlns="http://www.w3.org/2000/svg" xmlns:xlink="http://www.w3.org/1999/xlink" x="0px" y="0px" width="24px" height="96px"
	 viewBox="0 0 24 96" enable-background="new 0 0 24 96" xml:space="preserve">
<g id="Page-1" sketch:type="MSPage">
	<path id="_x2E__x2A_" sketch:type="MSShapeGroup" fill="#787878" d="M5,15.5c0-0.436,0.142-0.794,0.424-1.077S6.065,14,6.5,14
		s0.793,0.141,1.076,0.423S8,15.064,8,15.5s-0.142,0.794-0.424,1.077S6.935,17,6.5,17s-0.793-0.141-1.076-0.423S5,15.936,5,15.5z
		 M13.867,12.376l1.426-2.361L13,9.002l0.322-0.995l2.43,0.607L15.957,6h1.086l0.205,2.598l2.43-0.59L20,9.002l-2.293,1.012
		l1.426,2.361L18.232,13L16.5,10.858L14.768,13L13.867,12.376z"/>
	<path id="_x2E__x2A_-copy" sketch:type="MSShapeGroup" fill="#48A095" d="M5,39.5c0-0.436,0.142-0.794,0.424-1.077S6.065,38,6.5,38
		s0.793,0.141,1.076,0.423S8,39.064,8,39.5s-0.142,0.794-0.424,1.077S6.935,41,6.5,41s-0.793-0.141-1.076-0.423S5,39.936,5,39.5z
		 M13.867,36.376l1.426-2.361L13,33.002l0.322-0.995l2.43,0.607L15.957,30h1.086l0.205,2.598l2.43-0.59L20,33.002l-2.293,1.012
		l1.426,2.361L18.232,37L16.5,34.858L14.768,37L13.867,36.376z"/>
	<path id="Aa" sketch:type="MSShapeGroup" fill="#787878" d="M9.512,62.168H6.024L5.208,65H3.32l3.392-10.464h2.176L12.28,65h-1.968
		L9.512,62.168z M9.096,60.712l-0.368-1.28c-0.149-0.555-0.304-1.125-0.464-1.711c-0.16-0.588-0.315-1.168-0.464-1.744H7.736
		c-0.149,0.586-0.301,1.17-0.456,1.752c-0.154,0.58-0.312,1.148-0.472,1.703l-0.368,1.28H9.096z M13.736,62.889
		c0-0.438,0.102-0.824,0.304-1.16s0.522-0.621,0.96-0.856s0.998-0.427,1.68-0.576c0.684-0.149,1.51-0.256,2.48-0.319
		c-0.032-0.449-0.192-0.816-0.48-1.104c-0.287-0.288-0.752-0.433-1.392-0.433c-0.448,0-0.888,0.083-1.32,0.248
		c-0.432,0.166-0.851,0.36-1.256,0.584L14.04,58.04c0.479-0.277,1.029-0.528,1.647-0.752c0.619-0.224,1.265-0.336,1.937-0.336
		c1.099,0,1.937,0.29,2.513,0.872C20.712,58.405,21,59.245,21,60.344V65h-1.504l-0.145-0.977h-0.047
		c-0.416,0.32-0.878,0.596-1.385,0.824c-0.507,0.229-1.026,0.344-1.561,0.344c-0.383,0-0.735-0.055-1.055-0.168
		c-0.32-0.111-0.598-0.27-0.832-0.471c-0.235-0.203-0.416-0.445-0.545-0.729C13.8,63.541,13.736,63.229,13.736,62.889z
		 M15.512,62.744c0,0.352,0.137,0.607,0.408,0.768s0.605,0.24,1,0.24s0.775-0.088,1.145-0.264c0.367-0.176,0.732-0.408,1.096-0.696
		v-1.664c-0.704,0.054-1.291,0.126-1.76,0.216c-0.47,0.091-0.844,0.205-1.121,0.344s-0.475,0.297-0.592,0.473
		S15.512,62.531,15.512,62.744z"/>
	<path id="Aa-copy" sketch:type="MSShapeGroup" fill="#48A095" d="M9.512,86.168H6.024L5.208,89H3.32l3.392-10.464h2.176L12.28,89
		h-1.968L9.512,86.168z M9.096,84.712l-0.368-1.28c-0.149-0.555-0.304-1.125-0.464-1.711c-0.16-0.588-0.315-1.168-0.464-1.744H7.736
		c-0.149,0.586-0.301,1.17-0.456,1.752c-0.154,0.58-0.312,1.148-0.472,1.703l-0.368,1.28H9.096z M13.736,86.889
		c0-0.438,0.102-0.824,0.304-1.16s0.522-0.621,0.96-0.856s0.998-0.427,1.68-0.576c0.684-0.149,1.51-0.256,2.48-0.319
		c-0.032-0.449-0.192-0.816-0.48-1.104c-0.287-0.288-0.752-0.433-1.392-0.433c-0.448,0-0.888,0.083-1.32,0.248
		c-0.432,0.166-0.851,0.36-1.256,0.584L14.04,82.04c0.479-0.277,1.029-0.528,1.647-0.752c0.619-0.224,1.265-0.336,1.937-0.336
		c1.099,0,1.937,0.29,2.513,0.872C20.712,82.405,21,83.246,21,84.344V89h-1.504l-0.145-0.977h-0.047
		c-0.416,0.32-0.878,0.596-1.385,0.824c-0.507,0.229-1.026,0.344-1.561,0.344c-0.383,0-0.735-0.055-1.055-0.168
		c-0.32-0.111-0.598-0.27-0.832-0.471c-0.235-0.203-0.416-0.445-0.545-0.729C13.8,87.541,13.736,87.229,13.736,86.889z
		 M15.512,86.744c0,0.352,0.137,0.607,0.408,0.768s0.605,0.24,1,0.24s0.775-0.088,1.145-0.264c0.367-0.176,0.732-0.408,1.096-0.696
		v-1.664c-0.704,0.054-1.291,0.126-1.76,0.216c-0.47,0.091-0.844,0.205-1.121,0.344s-0.475,0.297-0.592,0.473
		S15.512,86.531,15.512,86.744z"/>
</g>
</svg>
